<svg version="1.1" xmlns="http://www.w3.org/2000/svg" xmlns:xlink="http://www.w3.org/1999/xlink" x="0px" y="0px"
	 width="652.801px" height="652.801px" viewBox="0 0 652.801 652.801" style="enable-background:new 0 0 652.801 652.801;"
	 xml:space="preserve">
	<path d="M224.4,285.6c-33.782,0-61.2,27.397-61.2,61.201c0,33.781,27.418,61.199,61.2,61.199s61.2-27.418,61.2-61.199
		C285.601,312.997,258.183,285.6,224.4,285.6z M428.4,285.6c-33.782,0-61.2,27.397-61.2,61.201
		c0,33.781,27.418,61.199,61.2,61.199s61.2-27.418,61.2-61.199C489.601,312.997,462.183,285.6,428.4,285.6z M326.4,0
		c-169.014,0-306,136.986-306,306c0,90.516,39.535,171.605,102,227.623V612c0,22.541,18.278,40.801,40.8,40.801h326.4
		c22.521,0,40.8-18.26,40.8-40.801v-78.377c62.485-56.018,102-137.107,102-227.623C632.4,136.986,495.414,0,326.4,0z
		 M489.539,488.07L469.2,506.287V591.6h-40.8V530.4h-40.8V591.6h-40.8V530.4H306V591.6h-40.8V530.4h-40.8V591.6h-40.8v-85.312
		l-20.339-18.238C111.364,441.537,81.601,375.176,81.601,306c0-134.987,109.813-244.8,244.8-244.8
		c134.986,0,244.8,109.813,244.8,244.8C571.2,375.176,541.437,441.537,489.539,488.07z"/>
</svg>
